<svg viewBox="0 0 200 200" xmlns="http://www.w3.org/2000/svg">
  <!-- Background Circle -->
  <circle cx="100" cy="100" r="95" fill="#2c5f2d" opacity="0.1" stroke="#2c5f2d" stroke-width="2"/>
  
  <!-- Leaf 1 (Left) -->
  <path d="M 60 120 Q 50 100 60 60 Q 70 80 60 120" fill="#2c5f2d" opacity="0.8"/>
  <path d="M 60 60 Q 65 80 60 120" stroke="#97cc04" stroke-width="1.5" fill="none"/>
  
  <!-- Leaf 2 (Center - Main) -->
  <path d="M 100 140 Q 85 110 100 40 Q 115 110 100 140" fill="#2c5f2d"/>
  <path d="M 100 40 Q 105 85 100 140" stroke="#97cc04" stroke-width="2" fill="none"/>
  
  <!-- Leaf 3 (Right) -->
  <path d="M 140 120 Q 150 100 140 60 Q 130 80 140 120" fill="#2c5f2d" opacity="0.8"/>
  <path d="M 140 60 Q 135 80 140 120" stroke="#97cc04" stroke-width="1.5" fill="none"/>
  
  <!-- Agricultural elements - small sprout details -->
  <circle cx="95" cy="130" r="3" fill="#97cc04"/>
  <circle cx="105" cy="130" r="3" fill="#97cc04"/>
  
  <!-- Text: AG for AgriCo -->
  <text x="100" y="155" font-size="24" font-weight="bold" text-anchor="middle" fill="#2c5f2d" font-family="Arial, sans-serif">AG</text>
  
  <!-- Decorative bottom line -->
  <line x1="70" y1="168" x2="130" y2="168" stroke="#97cc04" stroke-width="2" stroke-linecap="round"/>
</svg>
